<svg width="48" height="48" viewBox="0 0 48 48" fill="none" xmlns="http://www.w3.org/2000/svg">
<path d="M8 4H40C41.0609 4 42.0783 4.42143 42.8284 5.17157C43.5786 5.92172 44 6.93913 44 8V40C44 41.0609 43.5786 42.0783 42.8284 42.8284C42.0783 43.5786 41.0609 44 40 44H8C6.93913 44 5.92172 43.5786 5.17157 42.8284C4.42143 42.0783 4 41.0609 4 40V8C4 6.93913 4.42143 5.92172 5.17157 5.17157C5.92172 4.42143 6.93913 4 8 4ZM12 12V20H20V24H16V36H20V32H28V36H32V24H28V20H36V12H28V20H20V12H12Z" fill="black"/>
</svg>
